<svg width="59" height="20" viewBox="0 0 59 20" fill="none" xmlns="http://www.w3.org/2000/svg">
<g clip-path="url(#clip0_10_2)">
<path d="M0 21.5676V2.2162H6.70257C7.53798 2.21042 8.36748 2.35668 9.15054 2.64781C9.89243 2.92159 10.5756 3.33379 11.1637 3.86249C11.7612 4.4057 12.2363 5.06984 12.5574 5.81079C12.8785 6.55174 13.0383 7.35255 13.0262 8.16C13.0346 8.96286 12.873 9.75841 12.552 10.4944C12.231 11.2303 11.7578 11.89 11.1637 12.43C10.5757 12.9589 9.89254 13.3711 9.15054 13.6447C8.36804 13.9359 7.53911 14.0824 6.70419 14.0771H3.05369V21.5635L0 21.5676ZM6.78355 11.1619C7.24674 11.1709 7.70681 11.0843 8.13507 10.9076C8.51251 10.7495 8.85304 10.5149 9.13515 10.2185C9.40158 9.93659 9.61231 9.60689 9.75626 9.24673C9.89699 8.90357 9.97039 8.53655 9.97247 8.16567C9.97004 7.39418 9.67012 6.65337 9.13515 6.09748C8.82929 5.78664 8.46334 5.54133 8.05961 5.37649C7.65587 5.21166 7.2228 5.13075 6.78678 5.1387H3.05369V11.1651L6.78355 11.1619Z" fill="#191919"/>
<path d="M15.4045 8.3244V21.5676H18.4047V8.3244H15.4045Z" fill="#191919"/>
<path d="M18.9109 4.02445C18.9153 4.28999 18.8662 4.5537 18.7665 4.79983C18.6667 5.04596 18.5183 5.26945 18.3303 5.45695C18.1479 5.64913 17.9274 5.80123 17.683 5.90356C17.4386 6.00589 17.1756 6.05622 16.9107 6.05133V1.99999C17.1756 1.99531 17.4386 2.04573 17.6829 2.14805C17.9273 2.25037 18.1477 2.40236 18.3303 2.59437C18.5179 2.78167 18.666 3.00478 18.7658 3.25045C18.8655 3.49612 18.9149 3.75933 18.9109 4.02445Z" fill="#35AF39"/>
<path d="M16.9082 2V6.05377C16.6399 6.05996 16.3732 6.01033 16.1251 5.90801C15.877 5.80569 15.6528 5.65292 15.4668 5.45939C15.2779 5.27192 15.1288 5.04814 15.0286 4.80154C14.9284 4.55493 14.8791 4.2906 14.8838 4.02445C14.88 3.75915 14.9296 3.49579 15.0298 3.25009C15.13 3.00439 15.2786 2.78139 15.4668 2.59438C15.653 2.40116 15.8772 2.2486 16.1253 2.14631C16.3734 2.04401 16.64 1.99419 16.9082 2Z" fill="#00BAFC"/>
<path d="M24.9996 14.8375L20.4316 8.3244H23.9185L26.7827 12.5134H26.8637L29.536 8.3244H33.1574L28.5359 14.8375L33.2383 21.5676H29.6753L26.8103 17.2433H26.7293L23.8886 21.5676H20.3506L24.9996 14.8375Z" fill="#191919"/>
<path d="M46.837 18.4054C46.267 19.4441 45.4495 20.3261 44.4571 20.9732C43.4313 21.6588 42.1705 22.0016 40.6746 22.0016C39.7342 22.0115 38.8015 21.8322 37.9318 21.4745C37.1138 21.1368 36.3733 20.6356 35.7559 20.0015C35.1359 19.3602 34.649 18.6025 34.3234 17.7721C33.9729 16.8722 33.7986 15.9133 33.81 14.9476C33.8047 14.0202 33.9694 13.0997 34.2959 12.2316C34.6033 11.4033 35.0664 10.6417 35.6604 9.98769C36.2804 9.31507 37.0354 8.78088 37.876 8.42003C38.7166 8.05917 39.6238 7.87979 40.5385 7.89359C41.5642 7.89359 42.4788 8.06473 43.2821 8.407C44.0578 8.73143 44.754 9.22015 45.3227 9.8395C45.8983 10.4822 46.3353 11.2367 46.6062 12.0559C46.9111 12.9693 47.0619 13.9272 47.0524 14.8901V15.133C47.0351 15.2129 47.0259 15.2943 47.0249 15.376C47.0072 15.4467 46.9983 15.5193 46.9981 15.5922H36.8103C36.8481 16.1675 37.0044 16.7288 37.2694 17.2409C37.5017 17.6851 37.8183 18.0798 38.2015 18.4029C38.5639 18.7056 38.9816 18.935 39.4315 19.0783C39.8589 19.2192 40.3056 19.2921 40.7555 19.2945C41.6193 19.2945 42.3311 19.0875 42.8909 18.6734C43.449 18.2587 43.9173 17.7354 44.2676 17.1348L46.837 18.4054ZM44.0522 13.2973C44.0045 12.986 43.9183 12.6819 43.7955 12.3919C43.6524 12.0474 43.4411 11.7353 43.1744 11.4745C42.8604 11.1722 42.4941 10.9296 42.0933 10.7586C41.6522 10.5605 41.1164 10.4614 40.4859 10.4614C39.6221 10.4614 38.8787 10.7181 38.2557 11.2315C37.6328 11.7449 37.2138 12.4335 36.999 13.2973H44.0522Z" fill="#191919"/>
<path d="M49.323 8.32439H52.1572V10.3246H52.3192C52.4896 9.97311 52.7142 9.65066 52.9848 9.36901C53.263 9.07159 53.5817 8.81481 53.9315 8.60619C54.2826 8.39788 54.6541 8.22586 55.0401 8.09279C55.4001 7.96384 55.7792 7.89596 56.1616 7.89197C56.5346 7.88498 56.9069 7.92608 57.2694 8.01424C57.5619 8.09067 57.8435 8.20386 58.1075 8.35111L57.2427 11.0809C57.0308 10.9869 56.8084 10.9189 56.5803 10.8784C56.2903 10.8297 55.9965 10.8069 55.7025 10.8104C55.2391 10.805 54.7808 10.9076 54.3639 11.11C53.9584 11.3094 53.5958 11.5861 53.2966 11.9247C52.9822 12.2826 52.7393 12.6974 52.5807 13.1466C52.408 13.6257 52.3211 14.1315 52.324 14.6407V21.5676H49.3279L49.323 8.32439Z" fill="#191919"/>
</g>
<defs>
<clipPath id="clip0_10_2">
<rect width="58.1067" height="20" fill="white"/>
</clipPath>
</defs>
</svg>
